<svg viewBox="0 0 32 32" xmlns="http://www.w3.org/2000/svg" aria-hidden="true" role="presentation" focusable="false" style="display:block;height:100%;width:100%;fill:currentColor"><path d="m12 0v2h8v-2h2v2h6c1.1045695 0 2 .8954305 2 2v21c0 2.7614237-2.2385763 5-5 5h-18c-2.76142375 0-5-2.2385763-5-5v-21c0-1.1045695.8954305-2 2-2h6v-2zm16 12h-24v13c0 1.6568542 1.34314575 3 3 3h18c1.6568542 0 3-1.3431458 3-3zm-8.2071068 2.2928932 1.4142136 1.4142136-3.7921068 3.7928932 3.7921068 3.7928932-1.4142136 1.4142136-3.7928932-3.7921068-3.7928932 3.7921068-1.4142136-1.4142136 3.7921068-3.7928932-3.7921068-3.7928932 1.4142136-1.4142136 3.7928932 3.7921068zm-9.7928932-10.2928932h-6v6h24v-6h-6v2h-2v-2h-8v2h-2z"></path></svg>