<svg xmlns="http://www.w3.org/2000/svg" xmlns:xlink="http://www.w3.org/1999/xlink" viewBox="0 0 148 148" width="148" height="148" preserveAspectRatio="xMidYMid meet"><defs><clipPath id="main__lottie_element_2"><rect width="148" height="148" x="0" y="0"></rect></clipPath><clipPath id="main__lottie_element_4"><path d="M0,0 L1000,0 L1000,1000 L0,1000z"></path></clipPath><filter id="main__lottie_element_10" x="-50%" y="-50%" width="200%" height="200%"><feGaussianBlur in="SourceAlpha" result="filter_result_0_drop_shadow_1" stdDeviation="2.5"></feGaussianBlur><feOffset dx="-0.4357787137382912" dy="4.9809734904587275" in="filter_result_0_drop_shadow_1" result="filter_result_0_drop_shadow_2"></feOffset><feFlood flood-color="#000000" flood-opacity="0.5" result="filter_result_0_drop_shadow_3"></feFlood><feComposite in="filter_result_0_drop_shadow_3" in2="filter_result_0_drop_shadow_2" operator="in" result="filter_result_0_drop_shadow_4"></feComposite><feMerge result="filter_result_0"><feMergeNode in="filter_result_0_drop_shadow_4"></feMergeNode><feMergeNode in="SourceGraphic"></feMergeNode></feMerge></filter><linearGradient id="main__lottie_element_11" spreadMethod="pad" gradientUnits="userSpaceOnUse" x1="-303.635009765625" y1="-176.3979949951172" x2="-129.0679931640625" y2="-174.4980010986328"><stop offset="0%" stop-color="rgb(245,237,231)"></stop><stop offset="45%" stop-color="rgb(232,217,209)"></stop><stop offset="90%" stop-color="rgb(219,197,186)"></stop><stop offset="95%" stop-color="rgb(113,100,94)"></stop><stop offset="100%" stop-color="rgb(8,3,3)"></stop></linearGradient><filter id="main__lottie_element_13" x="-50%" y="-50%" width="200%" height="200%"><feGaussianBlur in="SourceAlpha" result="filter_result_0_drop_shadow_1" stdDeviation="2.75"></feGaussianBlur><feOffset dx="-2.9301133901144096" dy="-8.509667180393851" in="filter_result_0_drop_shadow_1" result="filter_result_0_drop_shadow_2"></feOffset><feFlood flood-color="#8a7871" flood-opacity="1" result="filter_result_0_drop_shadow_3"></feFlood><feComposite in="filter_result_0_drop_shadow_3" in2="filter_result_0_drop_shadow_2" operator="in" result="filter_result_0_drop_shadow_4"></feComposite><feMerge result="filter_result_0"><feMergeNode in="filter_result_0_drop_shadow_4"></feMergeNode><feMergeNode in="SourceGraphic"></feMergeNode></feMerge></filter><linearGradient id="main__lottie_element_14" spreadMethod="pad" gradientUnits="userSpaceOnUse" x1="0" y1="0" x2="-170" y2="0"><stop offset="0%" stop-color="rgb(137,120,112)"></stop><stop offset="35%" stop-color="rgb(89,77,72)"></stop><stop offset="71%" stop-color="rgb(41,33,31)"></stop><stop offset="78%" stop-color="rgb(89,76,72)"></stop><stop offset="86%" stop-color="rgb(136,119,112)"></stop></linearGradient><filter id="main__lottie_element_18" x="-50%" y="-50%" width="200%" height="200%"><feGaussianBlur in="SourceAlpha" result="filter_result_0_drop_shadow_1" stdDeviation="30"></feGaussianBlur><feOffset dx="-22.229067854687916" dy="23.018873610836835" in="filter_result_0_drop_shadow_1" result="filter_result_0_drop_shadow_2"></feOffset><feFlood flood-color="#022c00" flood-opacity="0.35" result="filter_result_0_drop_shadow_3"></feFlood><feComposite in="filter_result_0_drop_shadow_3" in2="filter_result_0_drop_shadow_2" operator="in" result="filter_result_0_drop_shadow_4"></feComposite><feMerge result="filter_result_0"><feMergeNode in="filter_result_0_drop_shadow_4"></feMergeNode><feMergeNode in="SourceGraphic"></feMergeNode></feMerge></filter><linearGradient id="main__lottie_element_19" spreadMethod="pad" gradientUnits="userSpaceOnUse" x1="0" y1="-272" x2="0" y2="287"><stop offset="0%" stop-color="rgb(104,195,100)"></stop><stop offset="12%" stop-color="rgb(96,181,93)"></stop><stop offset="23%" stop-color="rgb(89,167,85)"></stop><stop offset="40%" stop-color="rgb(85,159,82)"></stop><stop offset="57%" stop-color="rgb(81,152,78)"></stop><stop offset="71%" stop-color="rgb(81,152,78)"></stop><stop offset="86%" stop-color="rgb(81,152,78)"></stop><stop offset="88%" stop-color="rgb(86,161,82)"></stop><stop offset="91%" stop-color="rgb(91,169,87)"></stop><stop offset="94%" stop-color="rgb(103,188,99)"></stop><stop offset="96%" stop-color="rgb(114,207,110)"></stop></linearGradient><filter id="main__lottie_element_21" x="-50%" y="-50%" width="200%" height="200%"><feGaussianBlur in="SourceAlpha" result="filter_result_0_drop_shadow_1" stdDeviation="7.5"></feGaussianBlur><feOffset dx="1.2246467991473533e-15" dy="20" in="filter_result_0_drop_shadow_1" result="filter_result_0_drop_shadow_2"></feOffset><feFlood flood-color="#000000" flood-opacity="0.3" result="filter_result_0_drop_shadow_3"></feFlood><feComposite in="filter_result_0_drop_shadow_3" in2="filter_result_0_drop_shadow_2" operator="in" result="filter_result_0_drop_shadow_4"></feComposite><feMerge result="filter_result_0"><feMergeNode in="filter_result_0_drop_shadow_4"></feMergeNode><feMergeNode in="SourceGraphic"></feMergeNode></feMerge></filter><radialGradient id="main__lottie_element_22" spreadMethod="pad" gradientUnits="userSpaceOnUse" cx="-0.5" cy="-1" r="48.610285451584964" fx="-0.5" fy="-1"><stop offset="59%" stop-color="rgb(101,77,55)"></stop><stop offset="62%" stop-color="rgb(177,155,116)"></stop><stop offset="65%" stop-color="rgb(254,234,177)"></stop><stop offset="67%" stop-color="rgb(254,238,193)"></stop><stop offset="69%" stop-color="rgb(255,242,209)"></stop><stop offset="74%" stop-color="rgb(244,222,166)"></stop><stop offset="80%" stop-color="rgb(233,201,123)"></stop><stop offset="85%" stop-color="rgb(244,223,161)"></stop><stop offset="91%" stop-color="rgb(255,245,199)"></stop><stop offset="93%" stop-color="rgb(255,244,197)"></stop><stop offset="95%" stop-color="rgb(255,243,195)"></stop><stop offset="97%" stop-color="rgb(205,154,120)"></stop><stop offset="100%" stop-color="rgb(155,66,44)"></stop></radialGradient><linearGradient id="main__lottie_element_26" spreadMethod="pad" gradientUnits="userSpaceOnUse" x1="0" y1="0" x2="100" y2="0"><stop offset="0%" stop-color="rgb(245,237,231)"></stop><stop offset="44%" stop-color="rgb(232,217,209)"></stop><stop offset="88%" stop-color="rgb(219,197,186)"></stop><stop offset="94%" stop-color="rgb(113,100,94)"></stop><stop offset="100%" stop-color="rgb(8,3,3)"></stop></linearGradient><filter id="main__lottie_element_32" x="-50%" y="-50%" width="200%" height="200%"><feGaussianBlur in="SourceAlpha" result="filter_result_0_drop_shadow_1" stdDeviation="8"></feGaussianBlur><feOffset dx="-3.9068178534858795" dy="11.346222907191802" in="filter_result_0_drop_shadow_1" result="filter_result_0_drop_shadow_2"></feOffset><feFlood flood-color="#000000" flood-opacity="0.25" result="filter_result_0_drop_shadow_3"></feFlood><feComposite in="filter_result_0_drop_shadow_3" in2="filter_result_0_drop_shadow_2" operator="in" result="filter_result_0_drop_shadow_4"></feComposite><feMerge result="filter_result_0"><feMergeNode in="filter_result_0_drop_shadow_4"></feMergeNode><feMergeNode in="SourceGraphic"></feMergeNode></feMerge></filter><linearGradient id="main__lottie_element_33" spreadMethod="pad" gradientUnits="userSpaceOnUse" x1="0" y1="-272" x2="0" y2="287"><stop offset="0%" stop-color="rgb(246,80,125)"></stop><stop offset="42%" stop-color="rgb(240,62,113)"></stop><stop offset="85%" stop-color="rgb(235,44,102)"></stop><stop offset="90%" stop-color="rgb(245,84,134)"></stop><stop offset="95%" stop-color="rgb(255,124,165)"></stop></linearGradient><filter id="main__lottie_element_36" x="-50%" y="-50%" width="200%" height="200%"><feGaussianBlur in="SourceAlpha" result="filter_result_0_drop_shadow_1" stdDeviation="4.5"></feGaussianBlur><feOffset dx="-1.9534089267429398" dy="5.673111453595901" in="filter_result_0_drop_shadow_1" result="filter_result_0_drop_shadow_2"></feOffset><feFlood flood-color="#000000" flood-opacity="0.25" result="filter_result_0_drop_shadow_3"></feFlood><feComposite in="filter_result_0_drop_shadow_3" in2="filter_result_0_drop_shadow_2" operator="in" result="filter_result_0_drop_shadow_4"></feComposite><feMerge result="filter_result_0"><feMergeNode in="filter_result_0_drop_shadow_4"></feMergeNode><feMergeNode in="SourceGraphic"></feMergeNode></feMerge></filter><linearGradient id="main__lottie_element_37" spreadMethod="pad" gradientUnits="userSpaceOnUse" x1="-257" y1="0" x2="291" y2="0"><stop offset="0%" stop-color="rgb(226,226,226)"></stop><stop offset="50%" stop-color="rgb(219,219,219)"></stop><stop offset="100%" stop-color="rgb(212,212,212)"></stop></linearGradient><filter id="main__lottie_element_40" x="-50%" y="-50%" width="200%" height="200%"><feGaussianBlur in="SourceAlpha" result="filter_result_0_drop_shadow_1" stdDeviation="4.5"></feGaussianBlur><feOffset dx="2.8678821817552307" dy="-4.095760221444959" in="filter_result_0_drop_shadow_1" result="filter_result_0_drop_shadow_2"></feOffset><feFlood flood-color="#85746d" flood-opacity="0.996078431372549" result="filter_result_0_drop_shadow_3"></feFlood><feComposite in="filter_result_0_drop_shadow_3" in2="filter_result_0_drop_shadow_2" operator="in" result="filter_result_0_drop_shadow_4"></feComposite><feMerge result="filter_result_0"><feMergeNode in="filter_result_0_drop_shadow_4"></feMergeNode><feMergeNode in="SourceGraphic"></feMergeNode></feMerge></filter><filter id="main__lottie_element_43" x="-50%" y="-50%" width="200%" height="200%"><feGaussianBlur in="SourceAlpha" result="filter_result_0_drop_shadow_1" stdDeviation="2.5"></feGaussianBlur><feOffset dx="3.5355339059327378" dy="3.5355339059327373" in="filter_result_0_drop_shadow_1" result="filter_result_0_drop_shadow_2"></feOffset><feFlood flood-color="#000000" flood-opacity="0.5" result="filter_result_0_drop_shadow_3"></feFlood><feComposite in="filter_result_0_drop_shadow_3" in2="filter_result_0_drop_shadow_2" operator="in" result="filter_result_0_drop_shadow_4"></feComposite><feMerge result="filter_result_0"><feMergeNode in="filter_result_0_drop_shadow_4"></feMergeNode><feMergeNode in="SourceGraphic"></feMergeNode></feMerge></filter></defs><g clip-path="url(#main__lottie_element_2)"><g clip-path="url(#main__lottie_element_4)" transform="matrix(0.14800000190734863,0,0,0.14800000190734863,0,0)" opacity="1"><g filter="url(#main__lottie_element_43)" transform="matrix(1,0.00000593625509281992,-0.00000593625509281992,1,499.99810791015625,500.0018005371094)" opacity="1"><g opacity="1" transform="matrix(1,0,0,1,0,0)"><path stroke-linecap="butt" stroke-linejoin="miter" fill-opacity="0" stroke-miterlimit="4" stroke="rgb(245,237,231)" stroke-opacity="1" stroke-width="24" d=" M-298.75,-314 C-282.75,-321 -234,-274 -184,-210"></path></g></g><g filter="url(#main__lottie_element_40)" transform="matrix(1,0.00000593625509281992,-0.00000593625509281992,1,499.99810791015625,500.0018005371094)" opacity="1"><g opacity="1" transform="matrix(1,0,0,1,0,0)"><path fill="rgb(138,120,113)" fill-opacity="1" d=" M-292,-300.5 C-265.5,-290 -228,-243 -204,-216 C-191,-212.5 -203,-218.5 -203,-218.5 C-203,-218.5 -232,-272.5 -260,-297 C-287.7539978027344,-321.28399658203125 -288,-310.5 -292,-300.5z"></path></g></g><g filter="url(#main__lottie_element_36)" transform="matrix(0.9836587905883789,0.1800425946712494,-0.1800425946712494,0.9836587905883789,452.9913330078125,554.1985473632812)" opacity="1"><path stroke-linecap="butt" stroke-linejoin="miter" fill-opacity="0" stroke-miterlimit="4" stroke="rgb(249,242,238)" stroke-opacity="1" stroke-width="3" d=" M-123.9530029296875,-219.40199279785156 C-107.20099639892578,-219.40199279785156 -93.62000274658203,-205.8209991455078 -93.62000274658203,-189.06900024414062 C-93.62000274658203,-172.31700134277344 -107.20099639892578,-158.73599243164062 -123.9530029296875,-158.73599243164062 C-140.7050018310547,-158.73599243164062 -154.28599548339844,-172.31700134277344 -154.28599548339844,-189.06900024414062 C-154.28599548339844,-205.8209991455078 -140.7050018310547,-219.40199279785156 -123.9530029296875,-219.40199279785156z M22.104000091552734,-272.8009948730469 C22.104000091552734,-272.8009948730469 -195.42300415039062,-266.510009765625 -195.42300415039062,-266.510009765625 C-223.2969970703125,-265.7040100097656 -245.70399475097656,-243.2969970703125 -246.50999450683594,-215.42300415039062 C-246.50999450683594,-215.42300415039062 -252.80099487304688,2.1040000915527344 -252.80099487304688,2.1040000915527344 C-253.25100708007812,17.67099952697754 -247.26499938964844,32.73500061035156 -236.2530059814453,43.74700164794922 C-236.2530059814453,43.74700164794922 -23.812000274658203,256.5570068359375 -23.812000274658203,256.5570068359375 C-4.531000137329102,275.8380126953125 26.731000900268555,275.8380126953125 46.012001037597656,256.5570068359375 C46.012001037597656,256.5570068359375 97.01000213623047,206.49400329589844 155.82000732421875,146.74899291992188 C214.23599243164062,87.40499877929688 266.8689880371094,16.076000213623047 266.8689880371094,16.076000213623047 C286.1390075683594,-3.193000078201294 286.1390075683594,-34.433998107910156 266.8689880371094,-53.702999114990234 C266.8689880371094,-53.702999114990234 63.74700164794922,-256.25299072265625 63.74700164794922,-256.25299072265625 C52.73500061035156,-267.2650146484375 37.67100143432617,-273.2510070800781 22.104000091552734,-272.8009948730469z"></path><g opacity="1" transform="matrix(1,0,0,1,0,0)"><path fill="url(#main__lottie_element_37)" fill-opacity="1" d=" M-123.9530029296875,-219.40199279785156 C-107.20099639892578,-219.40199279785156 -93.62000274658203,-205.8209991455078 -93.62000274658203,-189.06900024414062 C-93.62000274658203,-172.31700134277344 -107.20099639892578,-158.73599243164062 -123.9530029296875,-158.73599243164062 C-140.7050018310547,-158.73599243164062 -154.28599548339844,-172.31700134277344 -154.28599548339844,-189.06900024414062 C-154.28599548339844,-205.8209991455078 -140.7050018310547,-219.40199279785156 -123.9530029296875,-219.40199279785156z M22.104000091552734,-272.8009948730469 C22.104000091552734,-272.8009948730469 -195.42300415039062,-266.510009765625 -195.42300415039062,-266.510009765625 C-223.2969970703125,-265.7040100097656 -245.70399475097656,-243.2969970703125 -246.50999450683594,-215.42300415039062 C-246.50999450683594,-215.42300415039062 -252.80099487304688,2.1040000915527344 -252.80099487304688,2.1040000915527344 C-253.25100708007812,17.67099952697754 -247.26499938964844,32.73500061035156 -236.2530059814453,43.74700164794922 C-236.2530059814453,43.74700164794922 -23.812000274658203,256.5570068359375 -23.812000274658203,256.5570068359375 C-4.531000137329102,275.8380126953125 26.731000900268555,275.8380126953125 46.012001037597656,256.5570068359375 C46.012001037597656,256.5570068359375 97.01000213623047,206.49400329589844 155.82000732421875,146.74899291992188 C214.23599243164062,87.40499877929688 266.8689880371094,16.076000213623047 266.8689880371094,16.076000213623047 C286.1390075683594,-3.193000078201294 286.1390075683594,-34.433998107910156 266.8689880371094,-53.702999114990234 C266.8689880371094,-53.702999114990234 63.74700164794922,-256.25299072265625 63.74700164794922,-256.25299072265625 C52.73500061035156,-267.2650146484375 37.67100143432617,-273.2510070800781 22.104000091552734,-272.8009948730469z"></path></g></g><g filter="url(#main__lottie_element_32)" transform="matrix(1,0.00011411047307774425,-0.00011411047307774425,1,499.9814453125,500.0163269042969)" opacity="0.99"><g opacity="1" transform="matrix(1,0,0,1,0,0)"><path fill="url(#main__lottie_element_33)" fill-opacity="1" d=" M-134.9530029296875,-184.40199279785156 C-118.20099639892578,-184.40199279785156 -104.62000274658203,-170.8209991455078 -104.62000274658203,-154.06900024414062 C-104.62000274658203,-137.31700134277344 -118.20099639892578,-123.73600006103516 -134.9530029296875,-123.73600006103516 C-151.7050018310547,-123.73600006103516 -165.28599548339844,-137.31700134277344 -165.28599548339844,-154.06900024414062 C-165.28599548339844,-170.8209991455078 -151.7050018310547,-184.40199279785156 -134.9530029296875,-184.40199279785156z M22.104000091552734,-272.8009948730469 C22.104000091552734,-272.8009948730469 -195.42300415039062,-266.510009765625 -195.42300415039062,-266.510009765625 C-223.2969970703125,-265.7040100097656 -245.70399475097656,-243.2969970703125 -246.50999450683594,-215.42300415039062 C-246.50999450683594,-215.42300415039062 -252.80099487304688,2.1040000915527344 -252.80099487304688,2.1040000915527344 C-253.25100708007812,17.67099952697754 -247.26499938964844,32.73500061035156 -236.2530059814453,43.74700164794922 C-236.2530059814453,43.74700164794922 -8.331000328063965,271.66900634765625 -8.331000328063965,271.66900634765625 C10.949999809265137,290.95001220703125 42.21200180053711,290.95001220703125 61.49300003051758,271.66900634765625 C61.49300003051758,271.66900634765625 291.6910095214844,41.470001220703125 291.6910095214844,41.470001220703125 C310.9599914550781,22.201000213623047 310.9599914550781,-9.039999961853027 291.6910095214844,-28.30900001525879 C291.6910095214844,-28.30900001525879 63.74700164794922,-256.25299072265625 63.74700164794922,-256.25299072265625 C52.73500061035156,-267.2650146484375 37.67100143432617,-273.2510070800781 22.104000091552734,-272.8009948730469z"></path></g></g><g transform="matrix(1,0.00011411047307774425,-0.00011411047307774425,1,501.9812316894531,502.0165710449219)" opacity="0.99"><path stroke-linecap="butt" stroke-linejoin="miter" fill-opacity="0" stroke-miterlimit="4" stroke="rgb(78,144,76)" stroke-opacity="1" stroke-width="3" d=" M-134.9530029296875,-184.40199279785156 C-118.20099639892578,-184.40199279785156 -104.62000274658203,-170.8209991455078 -104.62000274658203,-154.06900024414062 C-104.62000274658203,-137.31700134277344 -118.20099639892578,-123.73600006103516 -134.9530029296875,-123.73600006103516 C-151.7050018310547,-123.73600006103516 -165.28599548339844,-137.31700134277344 -165.28599548339844,-154.06900024414062 C-165.28599548339844,-170.8209991455078 -151.7050018310547,-184.40199279785156 -134.9530029296875,-184.40199279785156z M22.104000091552734,-272.8009948730469 C22.104000091552734,-272.8009948730469 -195.42300415039062,-266.510009765625 -195.42300415039062,-266.510009765625 C-223.2969970703125,-265.7040100097656 -245.70399475097656,-243.2969970703125 -246.50999450683594,-215.42300415039062 C-246.50999450683594,-215.42300415039062 -252.80099487304688,2.1040000915527344 -252.80099487304688,2.1040000915527344 C-253.25100708007812,17.67099952697754 -247.26499938964844,32.73500061035156 -236.2530059814453,43.74700164794922 C-236.2530059814453,43.74700164794922 -8.331000328063965,271.66900634765625 -8.331000328063965,271.66900634765625 C10.949999809265137,290.95001220703125 42.21200180053711,290.95001220703125 61.49300003051758,271.66900634765625 C61.49300003051758,271.66900634765625 291.6910095214844,41.470001220703125 291.6910095214844,41.470001220703125 C310.9599914550781,22.201000213623047 310.9599914550781,-9.039999961853027 291.6910095214844,-28.30900001525879 C291.6910095214844,-28.30900001525879 63.74700164794922,-256.25299072265625 63.74700164794922,-256.25299072265625 C52.73500061035156,-267.2650146484375 37.67100143432617,-273.2510070800781 22.104000091552734,-272.8009948730469z"></path><g opacity="1" transform="matrix(1,0,0,1,0,0)"><path fill="rgb(49,84,48)" fill-opacity="1" d=" M-134.9530029296875,-184.40199279785156 C-118.20099639892578,-184.40199279785156 -104.62000274658203,-170.8209991455078 -104.62000274658203,-154.06900024414062 C-104.62000274658203,-137.31700134277344 -118.20099639892578,-123.73600006103516 -134.9530029296875,-123.73600006103516 C-151.7050018310547,-123.73600006103516 -165.28599548339844,-137.31700134277344 -165.28599548339844,-154.06900024414062 C-165.28599548339844,-170.8209991455078 -151.7050018310547,-184.40199279785156 -134.9530029296875,-184.40199279785156z M22.104000091552734,-272.8009948730469 C22.104000091552734,-272.8009948730469 -195.42300415039062,-266.510009765625 -195.42300415039062,-266.510009765625 C-223.2969970703125,-265.7040100097656 -245.70399475097656,-243.2969970703125 -246.50999450683594,-215.42300415039062 C-246.50999450683594,-215.42300415039062 -252.80099487304688,2.1040000915527344 -252.80099487304688,2.1040000915527344 C-253.25100708007812,17.67099952697754 -247.26499938964844,32.73500061035156 -236.2530059814453,43.74700164794922 C-236.2530059814453,43.74700164794922 -8.331000328063965,271.66900634765625 -8.331000328063965,271.66900634765625 C10.949999809265137,290.95001220703125 42.21200180053711,290.95001220703125 61.49300003051758,271.66900634765625 C61.49300003051758,271.66900634765625 291.6910095214844,41.470001220703125 291.6910095214844,41.470001220703125 C310.9599914550781,22.201000213623047 310.9599914550781,-9.039999961853027 291.6910095214844,-28.30900001525879 C291.6910095214844,-28.30900001525879 63.74700164794922,-256.25299072265625 63.74700164794922,-256.25299072265625 C52.73500061035156,-267.2650146484375 37.67100143432617,-273.2510070800781 22.104000091552734,-272.8009948730469z"></path></g></g><g filter="url(#main__lottie_element_18)" transform="matrix(1,0.00011411047307774425,-0.00011411047307774425,1,499.9814453125,500.0163269042969)" opacity="0.99"><path stroke-linecap="butt" stroke-linejoin="miter" fill-opacity="0" stroke-miterlimit="4" stroke="rgb(78,144,76)" stroke-opacity="1" stroke-width="3" d=" M-134.9530029296875,-184.40199279785156 C-118.20099639892578,-184.40199279785156 -104.62000274658203,-170.8209991455078 -104.62000274658203,-154.06900024414062 C-104.62000274658203,-137.31700134277344 -118.20099639892578,-123.73600006103516 -134.9530029296875,-123.73600006103516 C-151.7050018310547,-123.73600006103516 -165.28599548339844,-137.31700134277344 -165.28599548339844,-154.06900024414062 C-165.28599548339844,-170.8209991455078 -151.7050018310547,-184.40199279785156 -134.9530029296875,-184.40199279785156z M22.104000091552734,-272.8009948730469 C22.104000091552734,-272.8009948730469 -195.42300415039062,-266.510009765625 -195.42300415039062,-266.510009765625 C-223.2969970703125,-265.7040100097656 -245.70399475097656,-243.2969970703125 -246.50999450683594,-215.42300415039062 C-246.50999450683594,-215.42300415039062 -252.80099487304688,2.1040000915527344 -252.80099487304688,2.1040000915527344 C-253.25100708007812,17.67099952697754 -247.26499938964844,32.73500061035156 -236.2530059814453,43.74700164794922 C-236.2530059814453,43.74700164794922 -8.331000328063965,271.66900634765625 -8.331000328063965,271.66900634765625 C10.949999809265137,290.95001220703125 42.21200180053711,290.95001220703125 61.49300003051758,271.66900634765625 C61.49300003051758,271.66900634765625 291.6910095214844,41.470001220703125 291.6910095214844,41.470001220703125 C310.9599914550781,22.201000213623047 310.9599914550781,-9.039999961853027 291.6910095214844,-28.30900001525879 C291.6910095214844,-28.30900001525879 63.74700164794922,-256.25299072265625 63.74700164794922,-256.25299072265625 C52.73500061035156,-267.2650146484375 37.67100143432617,-273.2510070800781 22.104000091552734,-272.8009948730469z"></path><g opacity="1" transform="matrix(1,0,0,1,0,0)"><path fill="url(#main__lottie_element_19)" fill-opacity="1" d=" M-134.9530029296875,-184.40199279785156 C-118.20099639892578,-184.40199279785156 -104.62000274658203,-170.8209991455078 -104.62000274658203,-154.06900024414062 C-104.62000274658203,-137.31700134277344 -118.20099639892578,-123.73600006103516 -134.9530029296875,-123.73600006103516 C-151.7050018310547,-123.73600006103516 -165.28599548339844,-137.31700134277344 -165.28599548339844,-154.06900024414062 C-165.28599548339844,-170.8209991455078 -151.7050018310547,-184.40199279785156 -134.9530029296875,-184.40199279785156z M22.104000091552734,-272.8009948730469 C22.104000091552734,-272.8009948730469 -195.42300415039062,-266.510009765625 -195.42300415039062,-266.510009765625 C-223.2969970703125,-265.7040100097656 -245.70399475097656,-243.2969970703125 -246.50999450683594,-215.42300415039062 C-246.50999450683594,-215.42300415039062 -252.80099487304688,2.1040000915527344 -252.80099487304688,2.1040000915527344 C-253.25100708007812,17.67099952697754 -247.26499938964844,32.73500061035156 -236.2530059814453,43.74700164794922 C-236.2530059814453,43.74700164794922 -8.331000328063965,271.66900634765625 -8.331000328063965,271.66900634765625 C10.949999809265137,290.95001220703125 42.21200180053711,290.95001220703125 61.49300003051758,271.66900634765625 C61.49300003051758,271.66900634765625 291.6910095214844,41.470001220703125 291.6910095214844,41.470001220703125 C310.9599914550781,22.201000213623047 310.9599914550781,-9.039999961853027 291.6910095214844,-28.30900001525879 C291.6910095214844,-28.30900001525879 63.74700164794922,-256.25299072265625 63.74700164794922,-256.25299072265625 C52.73500061035156,-267.2650146484375 37.67100143432617,-273.2510070800781 22.104000091552734,-272.8009948730469z"></path></g></g><g transform="matrix(1,0.00011411047307774425,-0.00011411047307774425,1,499.9813537597656,500.7663269042969)" opacity="1"><g opacity="1" transform="matrix(1,0,0,1,-134.99200439453125,-154.82400512695312)"><path fill="rgb(255,255,255)" fill-opacity="1" d=" M0,-27.4689998626709 C15.160140991210938,-27.4689998626709 27.4689998626709,-15.160140991210938 27.4689998626709,0 C27.4689998626709,15.160140991210938 15.160140991210938,27.4689998626709 0,27.4689998626709 C-15.160140991210938,27.4689998626709 -27.4689998626709,15.160140991210938 -27.4689998626709,0 C-27.4689998626709,-15.160140991210938 -15.160140991210938,-27.4689998626709 0,-27.4689998626709z"></path><path stroke="url(#main__lottie_element_26)" stroke-linecap="butt" stroke-linejoin="miter" fill-opacity="0" stroke-miterlimit="4" stroke-opacity="1" stroke-width="0" d=" M0,-27.4689998626709 C15.160140991210938,-27.4689998626709 27.4689998626709,-15.160140991210938 27.4689998626709,0 C27.4689998626709,15.160140991210938 15.160140991210938,27.4689998626709 0,27.4689998626709 C-15.160140991210938,27.4689998626709 -27.4689998626709,15.160140991210938 -27.4689998626709,0 C-27.4689998626709,-15.160140991210938 -15.160140991210938,-27.4689998626709 0,-27.4689998626709z"></path></g></g><g filter="url(#main__lottie_element_21)" transform="matrix(1,0.00011411047307774425,-0.00011411047307774425,1,364.9990234375,346.0009460449219)" opacity="1"><g opacity="1" transform="matrix(1,0,0,1,0,0)"><path stroke="url(#main__lottie_element_22)" stroke-linecap="butt" stroke-linejoin="miter" fill-opacity="0" stroke-miterlimit="4" stroke-opacity="1" stroke-width="20" d=" M0,-38 C20.98699951171875,-38 38,-20.98699951171875 38,0 C38,20.98699951171875 20.98699951171875,38 0,38 C-20.98699951171875,38 -38,20.98699951171875 -38,0 C-38,-20.98699951171875 -20.98699951171875,-38 0,-38z"></path></g></g><g filter="url(#main__lottie_element_10)" transform="matrix(1,0.00000593625509281992,-0.00000593625509281992,1,500.49810791015625,500.5018005371094)" opacity="1"><g opacity="1" transform="matrix(1,0,0,1,0,0)"><g opacity="1" transform="matrix(1,0,0,1,0,0)"><path stroke="url(#main__lottie_element_11)" stroke-linecap="round" stroke-linejoin="round" fill-opacity="0" stroke-opacity="1" stroke-width="24" d=" M-130.5,-170.75 C-143.5,-162.25 -198.5,-177 -244.5,-211.5 C-290.5,-246 -315.5,-291 -299.5,-315"></path></g></g></g><g filter="url(#main__lottie_element_13)" transform="matrix(1,0.00000593625509281992,-0.00000593625509281992,1,500.49810791015625,500.5018005371094)" opacity="1"><g opacity="1" transform="matrix(1,0,0,1,0,0)"><path fill="url(#main__lottie_element_14)" fill-opacity="0.76" d=" M-290.375,-238.25 C-268.75,-213.5 -244.75,-193.75 -213,-178 C-166.0260009765625,-154.697998046875 -141.21800231933594,-154.11199951171875 -126.125,-159.875 C-112.375,-165.125 -121,-181 -132.5,-177 C-144,-173 -168.57400512695312,-165.36199951171875 -221,-192.5 C-263.5,-214.5 -274.25,-225 -290.375,-238.25z"></path></g></g></g></g></svg>