<svg xmlns="http://www.w3.org/2000/svg" viewBox="0 0 32 32" aria-hidden="true" role="presentation" focusable="false" style="display:block;height:100%;width:100%;fill:currentColor"><path d="M23 1a1 1 0 0 1 1 .88V6l-.02.2-2.9 14.53a5 5 0 0 1 2.31 3.4l.04.25.56 4.5a1 1 0 0 1-.87 1.11L23 30H9a1 1 0 0 1-1-1v-.12l.57-4.5a5 5 0 0 1 2.36-3.65L8.18 7H7a1 1 0 0 0-1 .88V15H4V8a3 3 0 0 1 2.82-3H8V2a1 1 0 0 1 .88-1H23zm-9.5 21a3 3 0 0 0-2.92 2.45l-.03.18-.42 3.37h11.74l-.42-3.37a3 3 0 0 0-2.62-2.6L18.5 22h-5zm2.5 2a1 1 0 1 1 0 2 1 1 0 0 1 0-2zm5.78-17H10.22l2.6 13H15v-9h2v9h2.18l2.6-13zM22 3H10v2h12V3z"></path></svg>