<svg xmlns="http://www.w3.org/2000/svg" viewBox="0 0 32 32" aria-hidden="true" role="presentation" focusable="false" style="display:block;height:100%;width:100%;fill:currentColor"><path d="m9.24 3-.2.4a20.37 20.37 0 0 0-1.7 5.02v.03A9 9 0 0 1 10.16 8c2.26 0 4.44.84 6.12 2.4l.24.24a6.98 6.98 0 0 0 4.95 2.05 6.99 6.99 0 0 0 3.53-.95v-.23a19.57 19.57 0 0 0-2.04-8.1l-.2-.41H9.24zm.92 7a7 7 0 0 0-3.11.73C7 11.15 7 11.57 7 12a9 9 0 0 0 9 9c4.06 0 7.7-3.14 8.72-6.92a9 9 0 0 1-3.25.6 8.98 8.98 0 0 1-6.13-2.4l-.23-.23A6.97 6.97 0 0 0 10.16 10zm13.8-9 .29.52A21.78 21.78 0 0 1 27 12c0 5.4-4.53 10.4-10 10.95V29h6v2H9v-2h6v-6.04A11 11 0 0 1 5 12c0-3.6.92-7.09 2.75-10.48L8.04 1h15.92z"></path></svg>